<?xml version="1.0" encoding="UTF-8" standalone="no"?>
<!DOCTYPE svg PUBLIC "-//W3C//DTD SVG 1.1//EN" "http://www.w3.org/Graphics/SVG/1.1/DTD/svg11.dtd">
<svg width="100%" height="100%" viewBox="0 0 346 80" version="1.1" xmlns="http://www.w3.org/2000/svg" xmlns:xlink="http://www.w3.org/1999/xlink" xml:space="preserve" style="fill-rule:evenodd;clip-rule:evenodd;stroke-linejoin:round;stroke-miterlimit:1.41421;">
    <g transform="matrix(1,0,0,1,-124.628,-343.933)">
        <path d="M124.631,382.592C124.761,389.836 128.969,395.437 134.211,395.343L134.099,389.081L134.098,389.081L133.86,375.768L133.748,369.506C128.506,369.6 124.501,375.348 124.631,382.592" style="fill:rgb(51,51,51);fill-rule:nonzero;"/>
        <path d="M164.391,343.938C148.756,344.218 136.264,357.166 136.545,372.801L136.946,395.21L142.165,395.117L141.763,372.707C141.535,359.95 151.727,349.385 164.485,349.157C177.242,348.928 187.806,359.121 188.035,371.878L188.41,392.81C188.542,400.177 186.735,412.162 174.019,414.296C173.078,412.464 171.159,411.22 168.964,411.259L163.127,411.364C160.054,411.419 157.599,413.963 157.654,417.036L157.669,417.885C157.724,420.957 160.269,423.413 163.342,423.358L169.179,423.253C171.57,423.21 173.58,421.658 174.332,419.525C186.762,417.677 193.901,407.917 193.629,392.717L193.254,371.784C192.973,356.15 180.026,343.658 164.391,343.938" style="fill:rgb(51,51,51);fill-rule:nonzero;"/>
        <path d="M195.929,368.31L195.985,371.441L196.336,391.016L196.392,394.148C201.634,394.054 205.638,388.306 205.508,381.061C205.379,373.817 201.171,368.216 195.929,368.31" style="fill:rgb(51,51,51);fill-rule:nonzero;"/>
        <path d="M263.897,367.86L259.359,370.753C257.807,368.466 255.355,367.133 252.372,367.187C247.516,367.274 243.986,370.894 244.079,376.094C244.194,381.466 247.964,384.784 252.686,384.699C255.649,384.646 258.034,383.264 259.598,380.903L264.013,383.96C261.705,387.483 257.71,389.734 252.816,389.822C244.576,389.969 238.66,384.243 238.516,376.194C238.372,368.145 244.079,362.21 252.319,362.063C257.251,361.974 261.65,364.152 263.897,367.86" style="fill:rgb(51,51,51);fill-rule:nonzero;"/>
        <path d="M273.849,367.089L273.966,373.647L279.855,373.541C282.761,373.489 284.252,372.391 284.211,370.135C284.172,367.918 282.567,366.933 279.737,366.984L273.849,367.089ZM279.745,362.068C286.13,361.954 289.607,364.913 289.698,370.037C289.777,374.434 286.772,377.491 281.638,378.08L290.07,388.657L283.608,388.773L275.617,378.264L274.05,378.292L274.241,388.941L268.907,389.036L268.427,362.271L279.745,362.068Z" style="fill:rgb(51,51,51);fill-rule:nonzero;"/>
        <path d="M314.906,388.212L294.908,388.57L294.429,361.805L314.273,361.45L314.361,366.344L299.85,366.604L299.957,372.53L313.798,372.282L313.886,377.177L300.044,377.425L300.155,383.581L314.818,383.318L314.906,388.212Z" style="fill:rgb(51,51,51);fill-rule:nonzero;"/>
        <path d="M350.371,387.577L343.909,387.693L337.831,368.678L332.438,387.898L325.976,388.014L317.505,361.392L323.049,361.293L329.172,381.722L334.788,361.082L340.696,360.977L347.047,381.402L352.434,360.766L357.883,360.669L350.371,387.577Z" style="fill:rgb(51,51,51);fill-rule:nonzero;"/>
        <path d="M385.126,364.292L382.89,366.512C380.956,364.252 378.044,362.889 374.717,362.949C368.714,363.056 364.204,367.497 364.32,373.94C364.435,380.383 369.101,384.66 374.971,384.554C380.63,384.453 384.068,381.025 384.448,375.53L376.112,375.679L376.061,372.812L387.723,372.603C387.747,372.87 387.771,373.137 387.775,373.386C387.915,381.186 383.091,387.354 375.024,387.499C367.988,387.625 361.244,382.658 361.089,373.998C360.944,365.949 366.769,360.127 374.664,359.985C378.909,359.909 382.629,361.525 385.126,364.292" style="fill:rgb(51,51,51);fill-rule:nonzero;"/>
        <path d="M415.687,375.927C415.817,383.192 410.968,386.855 404.85,386.965C398.732,387.074 393.774,383.587 393.644,376.322L393.352,360.033L396.411,359.979L396.699,376.038C396.799,381.639 400.228,384.102 404.797,384.02C409.367,383.939 412.705,381.354 412.605,375.753L412.317,359.694L415.395,359.638L415.687,375.927Z" style="fill:rgb(51,51,51);fill-rule:nonzero;"/>
        <path d="M425.868,362.338L426.037,371.782L433.417,371.65C437.489,371.577 439.581,369.876 439.526,366.76C439.47,363.662 437.263,362.134 433.248,362.206L425.868,362.338ZM433.234,359.318C439.256,359.21 442.632,361.866 442.718,366.702C442.801,371.329 439.26,374.338 433.543,374.44L433.104,374.448L442.929,385.918L439.105,385.987L429.471,374.513L426.087,374.574L426.296,386.216L423.218,386.271L422.738,359.506L433.234,359.318Z" style="fill:rgb(51,51,51);fill-rule:nonzero;"/>
        <path d="M470.56,374.943C470.69,382.208 465.841,385.871 459.723,385.981C453.605,386.09 448.647,382.603 448.517,375.338L448.225,359.049L451.284,358.995L451.572,375.054C451.672,380.655 455.101,383.118 459.67,383.036C464.24,382.955 467.578,380.37 467.478,374.769L467.19,358.71L470.268,358.654L470.56,374.943Z" style="fill:rgb(51,51,51);fill-rule:nonzero;"/>
    </g>
</svg>
