<?xml version="1.0" encoding="UTF-8" standalone="no"?>
<svg width="129px" height="38px" viewBox="0 0 129 38" version="1.1" xmlns="http://www.w3.org/2000/svg" xmlns:xlink="http://www.w3.org/1999/xlink">
    <!-- Generator: Sketch 39.1 (31720) - http://www.bohemiancoding.com/sketch -->
    <title>crewguru-beta</title>
    <desc>Created with Sketch.</desc>
    <defs></defs>
    <g id="hero-2" stroke="none" stroke-width="1" fill="none" fill-rule="evenodd">
        <g id="Desktop-HD" transform="translate(-80.000000, -50.000000)">
            <g id="crewguru-beta" transform="translate(80.000000, 50.000000)">
                <g id="CrewGuru_Logo" fill="#FFFFFF">
                    <g id="Group" transform="translate(0.135302, 0.316148)">
                        <path d="M6.6505431,18.8585185 L4.71591379,18.8585185 L4.71591379,10.5574074 C4.71591379,4.76592593 9.43182759,0.0540740741 15.2283017,0.0540740741 C21.0247759,0.0540740741 25.7406897,4.76592593 25.7406897,10.5574074 L25.7406897,18.3114815 C25.7406897,23.9418519 23.0302069,27.5088889 18.4106724,28.1107407 C18.1178276,28.8955556 17.3623621,29.457037 16.4760431,29.457037 L14.3119569,29.457037 C13.1728276,29.457037 12.2457328,28.5311111 12.2457328,27.3925926 L12.2457328,27.0781481 C12.2457328,25.94 13.1728276,25.0140741 14.3119569,25.0140741 L16.4760431,25.0140741 C17.2897069,25.0140741 17.9929052,25.4874074 18.3294914,26.1722222 C23.0565259,25.4662963 23.8060603,21.04 23.8060603,18.3114815 L23.8060603,10.5574074 C23.8060603,5.83185185 19.957931,1.98703704 15.2283017,1.98703704 C10.4986724,1.98703704 6.6505431,5.83185185 6.6505431,10.5574074 L6.6505431,18.8585185 L6.6505431,18.8585185 Z M3.70133621,18.89 C1.75781034,18.89 0.235387931,16.7877778 0.235387931,14.1044444 C0.235387931,11.4211111 1.75781034,9.31888889 3.70133621,9.31888889 L3.70133621,18.89 L3.70133621,18.89 Z M26.7552672,9.28851852 L26.7552672,18.8596296 C28.6987931,18.8596296 30.2208448,16.7574074 30.2208448,14.0740741 C30.2208448,11.3903704 28.6987931,9.28851852 26.7552672,9.28851852 L26.7552672,9.28851852 Z M51.9491897,9.57296296 L50.2480948,10.6140741 C49.6879828,9.75703704 48.7879483,9.24703704 47.682181,9.24703704 C45.8817414,9.24703704 44.5494828,10.5644444 44.5494828,12.4907407 C44.5565259,14.4807407 45.9314138,15.7340741 47.682181,15.7340741 C48.7809052,15.7340741 49.6738966,15.2385185 50.2692241,14.3744444 L51.885431,15.5359259 C51.0065259,16.8248148 49.5107931,17.6322222 47.6962672,17.6322222 C44.6414138,17.6322222 42.4865948,15.4722222 42.4865948,12.4907407 C42.4865948,9.50925926 44.6414138,7.34925926 47.6962672,7.34925926 C49.52525,7.34925926 51.1410862,8.18481481 51.9491897,9.57296296 L51.9491897,9.57296296 Z M108.153526,13.5674074 C108.153526,16.2585185 106.331957,17.582963 104.063707,17.582963 C101.795457,17.582963 99.980931,16.2585185 99.980931,13.5674074 L99.980931,7.5337037 L101.115241,7.5337037 L101.115241,13.4825926 C101.115241,15.5574074 102.369655,16.4922222 104.063707,16.4922222 C105.757759,16.4922222 107.012543,15.5574074 107.012543,13.4825926 L107.012543,7.5337037 L108.153526,7.5337037 L108.153526,13.5674074 L108.153526,13.5674074 Z M128.497716,13.5674074 C128.497716,16.2585185 126.676147,17.582963 124.407897,17.582963 C122.139647,17.582963 120.325121,16.2585185 120.325121,13.5674074 L120.325121,7.5337037 L121.459431,7.5337037 L121.459431,13.4825926 C121.459431,15.5574074 122.713845,16.4922222 124.407897,16.4922222 C126.101948,16.4922222 127.356733,15.5574074 127.356733,13.4825926 L127.356733,7.5337037 L128.497716,7.5337037 L128.497716,13.5674074 L128.497716,13.5674074 Z M96.9042069,9.05592593 L96.0608879,9.86333333 C95.3591724,9.01333333 94.2886207,8.48925926 93.0553362,8.48925926 C90.8297155,8.48925926 89.1286207,10.1040741 89.1286207,12.4907407 C89.1286207,14.8774074 90.8297155,16.4918519 93.0060345,16.4918519 C95.1037672,16.4918519 96.401181,15.2455556 96.5783707,13.212963 L93.487931,13.212963 L93.487931,12.1507407 L97.8116552,12.1507407 C97.8186983,12.25 97.8257414,12.3488889 97.8257414,12.4411111 C97.8257414,15.3303704 95.9967586,17.5825926 93.0060345,17.5825926 C90.3974914,17.5825926 87.9309224,15.6988889 87.9309224,12.4907407 C87.9309224,9.50925926 90.128,7.39148148 93.0553362,7.39148148 C94.6289138,7.39148148 95.9967586,8.01481481 96.9042069,9.05592593 L96.9042069,9.05592593 Z M70.7198017,17.4481481 L63.3056379,17.4481481 L63.3056379,7.5337037 L70.6630862,7.5337037 L70.6630862,9.34666667 L65.2832672,9.34666667 L65.2832672,11.5418519 L70.4150948,11.5418519 L70.4150948,13.3548148 L65.2832672,13.3548148 L65.2832672,15.6351852 L70.7198017,15.6351852 L70.7198017,17.4481481 L70.7198017,17.4481481 Z M77.2198448,17.4481481 L74.8240776,17.4481481 L71.8615259,7.5337037 L73.917,7.5337037 L76.050319,15.1396296 L78.2688966,7.5337037 L80.4593017,7.5337037 L82.6778793,15.1396296 L84.8111983,7.5337037 L86.8314569,7.5337037 L83.8685345,17.4481481 L81.4727672,17.4481481 L79.3464914,10.3662963 L77.2198448,17.4481481 L77.2198448,17.4481481 Z M112.017224,17.4481481 L110.876241,17.4481481 L110.876241,7.5337037 L114.767371,7.5337037 C117.000034,7.5337037 118.233319,8.53925926 118.233319,10.3311111 C118.233319,12.0448148 116.90106,13.1355556 114.781457,13.1355556 L114.618724,13.1355556 L118.184017,17.4481481 L116.766129,17.4481481 L113.272009,13.1355556 L112.017224,13.1355556 L112.017224,17.4481481 L112.017224,17.4481481 Z M55.6427414,17.4477778 L53.6651121,17.4477778 L53.6651121,7.53333333 L57.861319,7.53333333 C60.2285431,7.53333333 61.4974138,8.65222222 61.4974138,10.55 C61.4974138,12.1788889 60.3634741,13.2907407 58.4566466,13.4751852 L61.5115,17.4477778 L59.1157328,17.4477778 L56.2239828,13.5033333 L55.6427414,13.5033333 L55.6427414,17.4477778 L55.6427414,17.4477778 Z M112.017224,8.60296296 L112.017224,12.1014815 L114.753284,12.1014815 C116.263103,12.1014815 117.049707,11.4851852 117.049707,10.3311111 C117.049707,9.1837037 116.241603,8.60296296 114.753284,8.60296296 L112.017224,8.60296296 L112.017224,8.60296296 Z M57.8257328,9.35333333 L55.6427414,9.35333333 L55.6427414,11.7825926 L57.8257328,11.7825926 C58.9033276,11.7825926 59.463069,11.3859259 59.463069,10.55 C59.463069,9.72888889 58.8747845,9.35333333 57.8257328,9.35333333 L57.8257328,9.35333333 Z" id="Shape"></path>
                    </g>
                </g>
                <g id="Group-13" transform="translate(99.000000, 24.000000)">
                    <rect id="Rectangle-5" fill="#F06166" x="0" y="0" width="30" height="14" rx="2"></rect>
                    <path d="M6.876,10 L3.98,10 L3.98,4.664 L6.788,4.664 C7.27333576,4.664 7.65066532,4.79599868 7.92,5.06 C8.18933468,5.32400132 8.324,5.64533144 8.324,6.024 C8.324,6.34933496 8.23600088,6.62133224 8.06,6.84 C7.88399912,7.05866776 7.66533464,7.1946664 7.404,7.248 C7.69200144,7.29066688 7.93466568,7.43733208 8.132,7.688 C8.32933432,7.93866792 8.428,8.22933168 8.428,8.56 C8.428,8.97600208 8.29200136,9.31999864 8.02,9.592 C7.74799864,9.86400136 7.36666912,10 6.876,10 L6.876,10 Z M6.54,6.8 C6.73200096,6.8 6.88399944,6.7466672 6.996,6.64 C7.10800056,6.5333328 7.164,6.39466752 7.164,6.224 C7.164,6.05333248 7.10666724,5.91333388 6.992,5.804 C6.87733276,5.69466612 6.7266676,5.64 6.54,5.64 L5.116,5.64 L5.116,6.8 L6.54,6.8 Z M6.58,9.016 C6.7933344,9.016 6.96133272,8.96133388 7.084,8.852 C7.20666728,8.74266612 7.268,8.59200096 7.268,8.4 C7.268,8.22399912 7.20666728,8.0760006 7.084,7.956 C6.96133272,7.8359994 6.7933344,7.776 6.58,7.776 L5.116,7.776 L5.116,9.016 L6.58,9.016 Z M14.06,10 L10.284,10 L10.284,4.664 L14.06,4.664 L14.06,5.664 L11.42,5.664 L11.42,6.792 L14.004,6.792 L14.004,7.792 L11.42,7.792 L11.42,9 L14.06,9 L14.06,10 Z M18.324,10 L17.18,10 L17.18,5.664 L15.62,5.664 L15.62,4.664 L19.876,4.664 L19.876,5.664 L18.324,5.664 L18.324,10 Z M26.58,10 L25.284,10 L24.956,9.096 L22.668,9.096 L22.332,10 L21.036,10 L23.1,4.664 L24.524,4.664 L26.58,10 Z M24.644,8.096 L23.812,5.8 L22.98,8.096 L24.644,8.096 Z" id="BETA" fill="#FFFFFF"></path>
                </g>
            </g>
        </g>
    </g>
</svg>